<svg width="25" height="23" viewBox="0 0 25 23" fill="none" xmlns="http://www.w3.org/2000/svg">
    <path fill-rule="evenodd" clip-rule="evenodd" d="M2.79952 1.08329C2.79952 0.507996 3.26589 0.041626 3.84119 0.041626H11.1329C11.7081 0.041626 12.1745 0.507996 12.1745 1.08329C12.1745 1.65859 11.7081 2.12496 11.1329 2.12496H10.8073V6.67041H14.1927V2.12496H13.8672C13.2919 2.12496 12.8256 1.65859 12.8256 1.08329C12.8256 0.507996 13.2919 0.041626 13.8672 0.041626H21.1589C21.7342 0.041626 22.2006 0.507996 22.2006 1.08329C22.2006 1.65859 21.7342 2.12496 21.1589 2.12496H20.8334V6.67041H23.4375C24.0128 6.67041 24.4792 7.13678 24.4792 7.71208V21.9166C24.4792 22.4919 24.0128 22.9583 23.4375 22.9583H20.7032C20.1279 22.9583 19.6615 22.4919 19.6615 21.9166C19.6615 21.3413 20.1279 20.875 20.7032 20.875H22.3959V8.75375H20.8334V15.2878H19.7917C20.8334 15.2878 20.8334 15.2875 20.8334 15.2878L20.8334 15.2894L20.8334 15.2913L20.8333 15.2959L20.8332 15.3089L20.8325 15.3489C20.8318 15.3817 20.8304 15.4264 20.8277 15.4813C20.8223 15.591 20.8117 15.7433 20.791 15.9243C20.7501 16.281 20.6668 16.7749 20.492 17.2837C20.1543 18.266 19.3255 19.6439 17.5131 19.6439C15.7006 19.6439 14.8718 18.266 14.5342 17.2837C14.3593 16.7749 14.276 16.281 14.2351 15.9243C14.2144 15.7433 14.2038 15.591 14.1985 15.4813C14.1958 15.4264 14.1943 15.3817 14.1936 15.3489L14.1929 15.3089L14.1928 15.2959L14.1928 15.2913L14.1927 15.2894C14.1927 15.289 14.1927 15.2878 15.2344 15.2878H14.1927V8.75375H10.8073V15.2878H9.76567C10.8073 15.2878 10.8073 15.2875 10.8073 15.2878L10.8073 15.2913L10.8073 15.2959L10.8072 15.3089L10.8065 15.3489C10.8058 15.3817 10.8043 15.4264 10.8016 15.4813C10.7962 15.591 10.7857 15.7433 10.765 15.9243C10.7241 16.281 10.6408 16.7749 10.4659 17.2837C10.1282 18.266 9.29949 19.6439 7.48702 19.6439C5.67455 19.6439 4.84581 18.266 4.50811 17.2837C4.33323 16.7749 4.24995 16.281 4.20908 15.9243C4.18834 15.7433 4.1778 15.591 4.17241 15.4813C4.16971 15.4264 4.16829 15.3817 4.16754 15.3489L4.16684 15.3089L4.16673 15.2959L4.16671 15.2913L4.16671 15.2894C4.16671 15.289 4.16671 15.2878 5.20837 15.2878H4.16671V8.75375H2.60421V20.875H4.29692C4.87221 20.875 5.33858 21.3413 5.33858 21.9166C5.33858 22.4919 4.87221 22.9583 4.29692 22.9583H1.56254C0.987244 22.9583 0.520874 22.4919 0.520874 21.9166V7.71208C0.520874 7.13678 0.987244 6.67041 1.56254 6.67041H4.16671V2.12496H3.84119C3.26589 2.12496 2.79952 1.65859 2.79952 1.08329ZM6.25004 2.12496V15.2872V15.2852L6.25032 15.3012C6.25069 15.317 6.25149 15.3435 6.25324 15.3792C6.25675 15.4507 6.26401 15.5574 6.27887 15.6871C6.30921 15.9519 6.36835 16.2866 6.47829 16.6064C6.71026 17.2812 7.02084 17.5606 7.48702 17.5606C7.9532 17.5606 8.26378 17.2812 8.49574 16.6064C8.60569 16.2866 8.66483 15.9519 8.69517 15.6871C8.71003 15.5574 8.71729 15.4507 8.7208 15.3792C8.72255 15.3435 8.72335 15.317 8.72372 15.3012L8.72399 15.2858L8.724 15.2872V2.12496H6.25004ZM18.75 2.12496H16.2761L16.2761 15.2866L16.2764 15.3012C16.2767 15.317 16.2775 15.3435 16.2793 15.3792C16.2828 15.4507 16.2901 15.5574 16.3049 15.6871C16.3353 15.9519 16.3944 16.2866 16.5043 16.6064C16.7363 17.2812 17.0469 17.5606 17.5131 17.5606C17.9792 17.5606 18.2898 17.2812 18.5218 16.6064C18.6317 16.2866 18.6909 15.9519 18.7212 15.6871C18.7361 15.5574 18.7433 15.4507 18.7468 15.3792C18.7486 15.3435 18.7494 15.317 18.7498 15.3012L18.75 15.2858C18.75 15.2856 18.75 15.2859 18.75 15.2858L18.75 2.12496Z" fill="white"/>
</svg>
