<svg width="18" height="20" viewBox="0 0 18 20" fill="none" xmlns="http://www.w3.org/2000/svg">
    <path d="M0.239555 5.59038C0.086168 5.43378 1.14385e-08 5.22142 0 5C-1.14385e-08 4.77858 0.086168 4.56622 0.239555 4.40963L4.3305 0.234407C4.48482 0.0822974 4.69149 -0.00187101 4.90602 3.15663e-05C5.12055 0.00193414 5.32576 0.0897561 5.47746 0.244579C5.62916 0.399404 5.7152 0.608843 5.71707 0.827788C5.71893 1.04673 5.63646 1.25767 5.48742 1.41516L2.79312 4.16496L17.1818 4.16496C17.3988 4.16496 17.6069 4.25293 17.7604 4.40953C17.9138 4.56614 18 4.77853 18 5C18 5.22147 17.9138 5.43386 17.7604 5.59046C17.6069 5.74707 17.3988 5.83504 17.1818 5.83504L2.79312 5.83504L5.48742 8.58484C5.63646 8.74233 5.71893 8.95327 5.71707 9.17221C5.7152 9.39116 5.62916 9.6006 5.47746 9.75542C5.32576 9.91024 5.12055 9.99806 4.90602 9.99997C4.69149 10.0019 4.48482 9.9177 4.3305 9.76559L0.239555 5.59038Z" fill="#19A1B7"/>
    <path d="M17.7604 14.4096C17.9138 14.5662 18 14.7786 18 15C18 15.2214 17.9138 15.4338 17.7604 15.5904L13.6695 19.7656C13.5152 19.9177 13.3085 20.0019 13.094 20C12.8795 19.9981 12.6742 19.9102 12.5225 19.7554C12.3708 19.6006 12.2848 19.3912 12.2829 19.1722C12.2811 18.9533 12.3635 18.7423 12.5126 18.5848L15.2069 15.835L0.81819 15.835C0.601192 15.835 0.393082 15.7471 0.239641 15.5905C0.0862026 15.4339 3.0057e-08 15.2215 3.97376e-08 15C4.94183e-08 14.7785 0.0862027 14.5661 0.239641 14.4095C0.393082 14.2529 0.601193 14.165 0.81819 14.165L15.2069 14.165L12.5126 11.4152C12.3635 11.2577 12.2811 11.0467 12.2829 10.8278C12.2848 10.6088 12.3708 10.3994 12.5225 10.2446C12.6742 10.0898 12.8795 10.0019 13.094 10C13.3085 9.99813 13.5152 10.0823 13.6695 10.2344L17.7604 14.4096Z" fill="#19A1B7"/>
</svg>
