<svg width="17" height="24" viewBox="0 0 17 24" fill="none" xmlns="http://www.w3.org/2000/svg">
    <path d="M6.61126 21.4091H10.3891C10.3891 21.9636 10.19 22.4955 9.83581 22.8876C9.48157 23.2797 9.00112 23.5 8.50016 23.5C7.99919 23.5 7.51874 23.2797 7.1645 22.8876C6.81027 22.4955 6.61126 21.9636 6.61126 21.4091ZM0.0718876 18.6731C0.00038825 18.4821 -0.0183033 18.2718 0.0181779 18.0689C0.0546592 17.8661 0.144674 17.6798 0.276833 17.5336L1.88901 15.749V9.90909C1.89205 8.15116 2.46615 6.45307 3.50651 5.12487C4.54687 3.79667 5.98407 2.92697 7.55571 2.67455V1.54545C7.55571 1.26818 7.65521 1.00227 7.83233 0.806206C8.00945 0.610146 8.24967 0.5 8.50016 0.5C8.75064 0.5 8.99086 0.610146 9.16798 0.806206C9.3451 1.00227 9.4446 1.26818 9.4446 1.54545V2.67455C11.0162 2.92697 12.4534 3.79667 13.4938 5.12487C14.5342 6.45307 15.1083 8.15116 15.1113 9.90909V15.749L16.7235 17.5336C16.8555 17.6798 16.9454 17.8661 16.9819 18.0688C17.0183 18.2716 16.9996 18.4818 16.9281 18.6728C16.8567 18.8638 16.7356 19.027 16.5804 19.1419C16.4251 19.2568 16.2425 19.3181 16.0558 19.3182H0.944559C0.757779 19.3182 0.575179 19.257 0.419847 19.1422C0.264514 19.0273 0.143424 18.8641 0.0718876 18.6731ZM3.22446 17.2273H13.7759L13.4991 16.921C13.322 16.7249 13.2225 16.4591 13.2224 16.1818V9.90909C13.2224 8.52273 12.7249 7.19315 11.8393 6.21285C10.9537 5.23255 9.75257 4.68182 8.50016 4.68182C7.24774 4.68182 6.04662 5.23255 5.16102 6.21285C4.27543 7.19315 3.77791 8.52273 3.77791 9.90909V16.1818C3.77785 16.4591 3.67831 16.7249 3.50118 16.921L3.22446 17.2273Z" fill="#6B7280"/>
</svg>
