<svg width="18" height="19" viewBox="0 0 18 19" fill="none" xmlns="http://www.w3.org/2000/svg">
    <path d="M17.0298 1.42077C16.772 1.42134 16.525 1.524 16.3428 1.70629C16.1605 1.88858 16.0579 2.13565 16.0573 2.39344V3.92349C15.436 3.13971 14.6895 2.46395 13.848 1.9235C12.4012 0.995149 10.7179 0.50271 8.99893 0.504918C7.81667 0.501606 6.6455 0.732888 5.55321 1.18537C4.46091 1.63785 3.46919 2.30255 2.63545 3.14098C1.7981 3.97558 1.13414 4.96766 0.68183 6.06007C0.229519 7.15248 -0.00219838 8.32362 2.92244e-05 9.50601C-0.00299264 10.6882 0.228365 11.8592 0.680729 12.9514C1.13309 14.0436 1.79748 15.0352 2.63545 15.8689C3.46919 16.7073 4.46091 17.372 5.55321 17.8245C6.6455 18.277 7.81667 18.5082 8.99893 18.5049C10.6851 18.5067 12.3377 18.0333 13.7672 17.1388C15.1563 16.2683 16.2814 15.0348 17.021 13.5716C17.1386 13.3414 17.16 13.074 17.0805 12.8281C17.001 12.5821 16.8271 12.3778 16.5971 12.2601C16.4831 12.2017 16.3587 12.1663 16.2309 12.1561C16.1032 12.1459 15.9748 12.161 15.8529 12.2006C15.7311 12.2403 15.6183 12.3036 15.521 12.3869C15.4237 12.4703 15.3438 12.572 15.2859 12.6863C14.706 13.8354 13.8235 14.8042 12.7335 15.4885C11.6129 16.1884 10.3179 16.5588 8.99675 16.5574C8.06989 16.5604 7.15166 16.3794 6.29527 16.0248C5.43888 15.6702 4.66137 15.1492 4.0078 14.4918C3.35049 13.838 2.82934 13.0604 2.47449 12.2038C2.11965 11.3473 1.93816 10.4288 1.94054 9.50164C1.9372 8.57432 2.11824 7.65559 2.47314 6.7989C2.82804 5.94221 3.34971 5.16465 4.0078 4.51147C4.6614 3.85401 5.43888 3.33273 6.29523 2.9778C7.15158 2.62287 8.06979 2.44134 8.99675 2.44371C10.3436 2.44243 11.6625 2.82782 12.7969 3.5541C13.6228 4.08342 14.3298 4.77863 14.8729 5.59563H12.8537C12.5962 5.59563 12.3492 5.69781 12.1669 5.87975C11.9846 6.06169 11.8819 6.30853 11.8813 6.56612C11.8819 6.82392 11.9845 7.07098 12.1668 7.25327C12.349 7.43556 12.596 7.53822 12.8537 7.5388H17.0254C17.2816 7.53882 17.5276 7.43792 17.71 7.25792C17.8924 7.07793 17.9966 6.83332 18 6.57705V2.39344C18 2.13585 17.8979 1.88878 17.716 1.70643C17.5341 1.52408 17.2873 1.42134 17.0298 1.42077Z" fill="#A81D42"/>
</svg>
