<svg width="21" height="21" viewBox="0 0 21 21" fill="none" xmlns="http://www.w3.org/2000/svg">
    <path d="M2.62447 14.0004C4.00921 15.3871 5.85324 16.2196 7.80917 16.3409C9.7651 16.4623 11.6979 15.8643 13.2435 14.6594L18.5615 19.9774C18.7501 20.1596 19.0027 20.2604 19.2649 20.2581C19.5271 20.2558 19.7779 20.1507 19.9633 19.9652C20.1487 19.7798 20.2539 19.529 20.2561 19.2668C20.2584 19.0046 20.1576 18.752 19.9755 18.5634L14.6575 13.2454C15.9158 11.6306 16.5107 9.59657 16.3209 7.55819C16.131 5.51981 15.1708 3.63062 13.636 2.27589C12.1011 0.921154 10.1073 0.202935 8.06114 0.2677C6.01496 0.332466 4.07056 1.17534 2.62447 2.62442C1.87727 3.37124 1.28454 4.25797 0.880131 5.23394C0.475726 6.2099 0.267578 7.25599 0.267578 8.31242C0.267578 9.36886 0.475726 10.4149 0.880131 11.3909C1.28454 12.3669 1.87727 13.2536 2.62447 14.0004V14.0004ZM4.03847 4.04042C5.02705 3.05187 6.3278 2.43666 7.7191 2.29962C9.1104 2.16257 10.5062 2.51217 11.6686 3.28885C12.8311 4.06552 13.6883 5.22122 14.0942 6.55904C14.5001 7.89686 14.4296 9.33403 13.8946 10.6257C13.3597 11.9173 12.3935 12.9836 11.1606 13.6427C9.9277 14.3019 8.5044 14.5131 7.13319 14.2405C5.76199 13.9679 4.52772 13.2283 3.64067 12.1478C2.75362 11.0672 2.26868 9.71246 2.26847 8.31442C2.26573 7.52 2.42078 6.73293 2.72462 5.9989C3.02846 5.26487 3.47505 4.59849 4.03847 4.03842V4.04042Z" fill="#858D9C"/>
</svg>
