<svg width="18" height="22" viewBox="0 0 18 22" fill="none" xmlns="http://www.w3.org/2000/svg">
    <path d="M15 22C15.7956 22 16.5587 21.6839 17.1213 21.1213C17.6839 20.5587 18 19.7956 18 19V3C18 2.20435 17.6839 1.44129 17.1213 0.87868C16.5587 0.31607 15.7956 0 15 0H12C11.7348 0 11.4804 0.105357 11.2929 0.292893C11.1054 0.48043 11 0.734784 11 1C11 1.53043 10.7893 2.03914 10.4142 2.41421C10.0391 2.78929 9.53043 3 9 3C8.46957 3 7.96086 2.78929 7.58579 2.41421C7.21071 2.03914 7 1.53043 7 1C7 0.734784 6.89464 0.48043 6.70711 0.292893C6.51957 0.105357 6.26522 0 6 0H3C2.20435 0 1.44129 0.31607 0.87868 0.87868C0.316071 1.44129 0 2.20435 0 3V19C0 19.7956 0.316071 20.5587 0.87868 21.1213C1.44129 21.6839 2.20435 22 3 22H15ZM2 19V10H2.882C3.14722 10 3.40157 9.89464 3.58911 9.70711C3.77664 9.51957 3.882 9.26522 3.882 9C3.882 8.73478 3.77664 8.48043 3.58911 8.29289C3.40157 8.10536 3.14722 8 2.882 8H2V3C2 2.73478 2.10536 2.48043 2.29289 2.29289C2.48043 2.10536 2.73478 2 3 2H5.126C5.34734 2.85908 5.84799 3.62021 6.54919 4.16365C7.2504 4.70709 8.11236 5.002 8.9995 5.002C9.88664 5.002 10.7486 4.70709 11.4498 4.16365C12.151 3.62021 12.6517 2.85908 12.873 2H15C15.2652 2 15.5196 2.10536 15.7071 2.29289C15.8946 2.48043 16 2.73478 16 3V8H15.117C14.8518 8 14.5974 8.10536 14.4099 8.29289C14.2224 8.48043 14.117 8.73478 14.117 9C14.117 9.26522 14.2224 9.51957 14.4099 9.70711C14.5974 9.89464 14.8518 10 15.117 10H16V19C16 19.2652 15.8946 19.5196 15.7071 19.7071C15.5196 19.8946 15.2652 20 15 20H3C2.73478 20 2.48043 19.8946 2.29289 19.7071C2.10536 19.5196 2 19.2652 2 19ZM4.706 9C4.706 8.73478 4.81136 8.48043 4.99889 8.29289C5.18643 8.10536 5.44078 8 5.706 8H7.588C7.85322 8 8.10757 8.10536 8.29511 8.29289C8.48264 8.48043 8.588 8.73478 8.588 9C8.588 9.26522 8.48264 9.51957 8.29511 9.70711C8.10757 9.89464 7.85322 10 7.588 10H5.706C5.44078 10 5.18643 9.89464 4.99889 9.70711C4.81136 9.51957 4.706 9.26522 4.706 9ZM9.412 9C9.412 8.73478 9.51736 8.48043 9.70489 8.29289C9.89243 8.10536 10.1468 8 10.412 8H12.294C12.5592 8 12.8136 8.10536 13.0011 8.29289C13.1886 8.48043 13.294 8.73478 13.294 9C13.294 9.26522 13.1886 9.51957 13.0011 9.70711C12.8136 9.89464 12.5592 10 12.294 10H10.412C10.1468 10 9.89243 9.89464 9.70489 9.70711C9.51736 9.51957 9.412 9.26522 9.412 9ZM8 12H10V14H12V16H10V18H8V16H6V14H8V12Z" fill="#4B5563"/>
</svg>
