<svg width="22" height="19" viewBox="0 0 22 19" fill="none" xmlns="http://www.w3.org/2000/svg">
    <path
            d="M1 18.9999H9C9.26522 18.9999 9.51957 18.8946 9.70711 18.707C9.89464 18.5195 10 18.2651 10 17.9999C10 17.7347 9.89464 17.4803 9.70711 17.2928C9.51957 17.1053 9.26522 16.9999 9 16.9999H2.071C2.31366 15.3347 3.14714 13.8124 4.41925 12.7108C5.69136 11.6093 7.31724 11.002 9 10.9999C10.1775 11.0101 11.3214 10.6081 12.2336 9.8634C13.1457 9.11873 13.7686 8.0784 13.9943 6.92271C14.2199 5.76701 14.0341 4.56878 13.4691 3.53569C12.904 2.5026 11.9953 1.69975 10.9005 1.26629C9.80567 0.832833 8.59368 0.796077 7.47459 1.1624C6.3555 1.52871 5.39984 2.27502 4.77322 3.27197C4.14661 4.26892 3.88855 5.45369 4.04375 6.62094C4.19895 7.78818 4.75765 8.86435 5.623 9.66292C3.96321 10.3362 2.54177 11.489 1.54021 12.974C0.538645 14.459 0.00241635 16.2088 0 17.9999C0 18.2651 0.105357 18.5195 0.292893 18.707C0.48043 18.8946 0.734784 18.9999 1 18.9999ZM9 2.99992C9.59334 2.99992 10.1734 3.17587 10.6667 3.50551C11.1601 3.83516 11.5446 4.30369 11.7716 4.85187C11.9987 5.40005 12.0581 6.00325 11.9424 6.58519C11.8266 7.16713 11.5409 7.70168 11.1213 8.12124C10.7018 8.5408 10.1672 8.82652 9.58527 8.94228C9.00333 9.05803 8.40013 8.99862 7.85195 8.77156C7.30377 8.5445 6.83524 8.15998 6.50559 7.66663C6.17595 7.17328 6 6.59326 6 5.99992C6 5.20427 6.31607 4.44121 6.87868 3.8786C7.44129 3.31599 8.20435 2.99992 9 2.99992ZM22 13.9999C22 14.2651 21.8946 14.5195 21.7071 14.707C21.5196 14.8946 21.2652 14.9999 21 14.9999H18V17.9999C18 18.2651 17.8946 18.5195 17.7071 18.707C17.5196 18.8946 17.2652 18.9999 17 18.9999C16.7348 18.9999 16.4804 18.8946 16.2929 18.707C16.1054 18.5195 16 18.2651 16 17.9999V14.9999H13C12.7348 14.9999 12.4804 14.8946 12.2929 14.707C12.1054 14.5195 12 14.2651 12 13.9999C12 13.7347 12.1054 13.4803 12.2929 13.2928C12.4804 13.1053 12.7348 12.9999 13 12.9999H16V9.99992C16 9.7347 16.1054 9.48035 16.2929 9.29281C16.4804 9.10528 16.7348 8.99992 17 8.99992C17.2652 8.99992 17.5196 9.10528 17.7071 9.29281C17.8946 9.48035 18 9.7347 18 9.99992V12.9999H21C21.2652 12.9999 21.5196 13.1053 21.7071 13.2928C21.8946 13.4803 22 13.7347 22 13.9999Z"
            fill="#6B7280"/>
</svg>