<svg width="23" height="23" viewBox="0 0 23 23" fill="none" xmlns="http://www.w3.org/2000/svg">
    <path fill-rule="evenodd" clip-rule="evenodd" d="M22.6052 2.2634C22.9743 2.51096 23.0693 3.00576 22.8175 3.36857L17.5426 10.9678C17.0729 11.6445 16.1849 11.9048 15.4149 11.5916L12.0123 10.2076C11.955 10.1842 11.8888 10.2 11.8487 10.2466L5.635 17.4683C5.34645 17.8036 4.836 17.8455 4.49486 17.5619C4.15372 17.2782 4.11109 16.7764 4.39963 16.4411L10.6134 9.21941C11.1079 8.64472 11.9235 8.45005 12.631 8.73785L16.0336 10.1219C16.096 10.1473 16.168 10.1262 16.2061 10.0713L21.481 2.47207C21.7328 2.10926 22.2361 2.01584 22.6052 2.2634Z" fill="white"/>
    <path fill-rule="evenodd" clip-rule="evenodd" d="M0.863532 0.041626C1.31746 0.041626 1.68544 0.409606 1.68544 0.863532V19.2355C1.68544 20.3837 2.61621 21.3145 3.76438 21.3145H22.1364C22.5903 21.3145 22.9583 21.6825 22.9583 22.1364C22.9583 22.5903 22.5903 22.9583 22.1364 22.9583H3.76438C1.70836 22.9583 0.041626 21.2916 0.041626 19.2355V0.863532C0.041626 0.409606 0.409606 0.041626 0.863532 0.041626Z" fill="white"/>
</svg>
