<svg width="21" height="24" viewBox="0 0 21 24" fill="none" xmlns="http://www.w3.org/2000/svg">
    <path fill-rule="evenodd" clip-rule="evenodd"
          d="M0.976562 15.7243C0.976562 15.2549 1.35712 14.8743 1.82656 14.8743H7.60917C8.07861 14.8743 8.45917 15.2549 8.45917 15.7243C8.45917 16.1938 8.07861 16.5743 7.60917 16.5743H1.82656C1.35712 16.5743 0.976562 16.1938 0.976562 15.7243Z"
          fill="#4B5563"/>
    <path fill-rule="evenodd" clip-rule="evenodd"
          d="M2.62866 23.1726C2.62866 22.7032 3.00922 22.3226 3.47866 22.3226H18.3482C18.8177 22.3226 19.1982 22.7032 19.1982 23.1726C19.1982 23.6421 18.8177 24.0226 18.3482 24.0226H3.47866C3.00922 24.0226 2.62866 23.6421 2.62866 23.1726Z"
          fill="#4B5563"/>
    <path fill-rule="evenodd" clip-rule="evenodd"
          d="M11.0196 3.79249C10.961 3.73379 10.8659 3.73379 10.8073 3.79249L7.38457 7.22139L6.1814 6.0204L9.60408 2.5915C10.3268 1.86745 11.5 1.86745 12.2227 2.5915L14.1142 4.48635C14.8351 5.20855 14.8351 6.37807 14.1142 7.10027L10.6889 10.5317L9.48574 9.33075L12.911 5.89928C12.9694 5.84072 12.9694 5.7459 12.911 5.68734L11.0196 3.79249Z"
          fill="#4B5563"/>
    <path fill-rule="evenodd" clip-rule="evenodd"
          d="M13.9111 1.72352C13.8525 1.66482 13.7574 1.66482 13.6988 1.72352L11.9283 3.49725L10.7251 2.29626L12.4956 0.522531C13.2184 -0.201521 14.3915 -0.201521 15.1143 0.522531L16.1796 1.58979C16.9005 2.31199 16.9005 3.48152 16.1796 4.20371L14.4065 5.98001L13.2034 4.77902L14.9764 3.00272C15.0349 2.94417 15.0349 2.84934 14.9764 2.79078L13.9111 1.72352Z"
          fill="#4B5563"/>
    <path fill-rule="evenodd" clip-rule="evenodd"
          d="M4.57839 6.26274C5.24283 5.33084 6.5855 5.21975 7.39405 6.02978L10.6827 9.32436C11.4894 10.1325 11.3785 11.4713 10.4499 12.1358L9.20703 13.0252C8.47058 13.5522 7.46088 13.4686 6.82112 12.8277L3.88761 9.88884C3.24959 9.24966 3.16632 8.24322 3.69062 7.50788L4.57839 6.26274ZM6.19088 7.23077C6.12533 7.16509 6.01646 7.1741 5.96259 7.24966L5.07481 8.49479C5.0323 8.55442 5.03905 8.63602 5.09079 8.68785L8.02429 11.6267C8.07616 11.6786 8.15803 11.6854 8.21774 11.6427L9.46062 10.7533C9.53591 10.6994 9.5449 10.5909 9.47949 10.5253L6.19088 7.23077Z"
          fill="#4B5563"/>
    <path fill-rule="evenodd" clip-rule="evenodd"
          d="M12.5036 20.4899C11.3474 20.8197 10.1175 20.7818 8.98364 20.3817C7.84983 19.9815 6.86817 19.2389 6.17391 18.2564C5.53758 17.356 5.06443 16.4838 5.06443 15.2014H6.76443C6.76443 15.9745 7.01298 16.4981 7.56224 17.2753C8.05356 17.9706 8.74794 18.4957 9.54941 18.7786C10.3509 19.0615 11.2201 19.0882 12.0374 18.8551C12.8546 18.6221 13.5798 18.1406 14.1127 17.4769C14.6457 16.8132 14.96 15.9999 15.0122 15.1493C15.0644 14.2987 14.8518 13.4529 14.404 12.7287C13.9561 12.0045 13.2951 11.4376 12.5125 11.106C12.0051 10.8911 11.4627 10.7818 10.9178 10.7812L10.9196 9.08123C11.6905 9.08205 12.4579 9.23665 13.1756 9.54074C14.2828 10.0098 15.2171 10.8114 15.8498 11.8346C16.4826 12.8578 16.7827 14.0523 16.709 15.2534C16.6353 16.4545 16.1914 17.6033 15.4383 18.5413C14.6851 19.4792 13.6598 20.1602 12.5036 20.4899Z"
          fill="#4B5563"/>
    <path fill-rule="evenodd" clip-rule="evenodd"
          d="M13.4084 23.6738C11.5943 24.1911 9.6647 24.1318 7.88578 23.5039C6.10688 22.8761 4.56654 21.7108 3.47708 20.1691C2.42691 18.6831 1.65046 16.9464 1.65046 15.0002H3.35046C3.35046 16.48 3.9396 17.878 4.86541 19.1881C5.75193 20.4426 7.00499 21.3903 8.45156 21.9008C9.89811 22.4114 11.4671 22.4596 12.9422 22.039C14.4172 21.6183 15.7259 20.7494 16.6875 19.5518C17.6492 18.3541 18.2163 16.8869 18.3104 15.3524C18.4046 13.8179 18.0211 12.292 17.213 10.9853C16.405 9.67863 15.2122 8.65562 13.7996 8.05713C13.6113 7.97734 13.4203 7.90562 13.2272 7.84202L13.7589 6.22731C13.9964 6.30553 14.2313 6.39372 14.4628 6.49182C16.1999 7.22777 17.6659 8.48548 18.6589 10.0912C19.6518 11.6968 20.1229 13.5715 20.0073 15.4565C19.8916 17.3415 19.1949 19.1443 18.0131 20.6161C16.8312 22.088 15.2224 23.1565 13.4084 23.6738Z"
          fill="#4B5563"/>
</svg>