<svg width="25" height="25" viewBox="0 0 25 25" fill="none" xmlns="http://www.w3.org/2000/svg">
    <path fill-rule="evenodd" clip-rule="evenodd" d="M12.6562 1.04167C12.6562 0.552665 13.0527 0.15625 13.5417 0.15625H23.9583C24.4473 0.15625 24.8437 0.552665 24.8437 1.04167C24.8437 1.53067 24.4473 1.92708 23.9583 1.92708H22.8906V19.6227H22.0052C22.8906 19.6227 22.8906 19.6224 22.8906 19.6227L22.8906 19.6262L22.8906 19.6312L22.8905 19.6459C22.8903 19.6578 22.89 19.6738 22.8896 19.6936C22.8886 19.7332 22.8867 19.7882 22.883 19.8565C22.8757 19.9927 22.8613 20.1832 22.8329 20.4101C22.7767 20.8594 22.6628 21.4743 22.4272 22.1017C22.1931 22.7255 21.8208 23.4093 21.2198 23.943C20.6005 24.4928 19.7812 24.8437 18.75 24.8437C17.7188 24.8437 16.8995 24.4928 16.2802 23.943C15.6792 23.4093 15.3069 22.7255 15.0728 22.1017C14.8372 21.4743 14.7233 20.8594 14.6671 20.4101C14.6387 20.1832 14.6243 19.9927 14.617 19.8565C14.6133 19.7882 14.6114 19.7332 14.6104 19.6936C14.61 19.6738 14.6097 19.6578 14.6095 19.6459L14.6094 19.6312L14.6094 19.6262L14.6094 19.6242C14.6094 19.6239 14.6094 19.6227 15.4948 19.6227H14.6094V1.92708H13.5417C13.0527 1.92708 12.6562 1.53067 12.6562 1.04167ZM16.3802 1.92708V19.6221L16.3807 19.6493C16.3813 19.6732 16.3826 19.7113 16.3853 19.7616C16.3907 19.8625 16.4018 20.0107 16.4242 20.1902C16.4697 20.5539 16.5593 21.0229 16.7306 21.4794C16.9033 21.9394 17.1415 22.3396 17.456 22.6188C17.7522 22.8819 18.1536 23.0729 18.75 23.0729C19.3464 23.0729 19.7478 22.8819 20.044 22.6188C20.3585 22.3396 20.5967 21.9394 20.7694 21.4794C20.9407 21.0229 21.0303 20.5539 21.0758 20.1902C21.0982 20.0107 21.1093 19.8625 21.1147 19.7616C21.1174 19.7113 21.1187 19.6732 21.1193 19.6493L21.1198 19.6227V1.92708H16.3802Z" fill="white"/>
    <path fill-rule="evenodd" clip-rule="evenodd" d="M21.875 14.4271H15.625V12.6562H21.875V14.4271Z" fill="white"/>
    <path fill-rule="evenodd" clip-rule="evenodd" d="M6.66193 9.30443V10.0284C6.66193 10.5749 6.21888 11.018 5.67235 11.018H1.92708V13.982H5.67235C6.21888 13.982 6.66193 14.4251 6.66193 14.9716V15.6956L10.148 12.5L6.66193 9.30443ZM4.8911 7.52846C4.8911 6.66742 5.91465 6.21716 6.54937 6.79899L11.9729 11.7705C12.4007 12.1627 12.4007 12.8373 11.9729 13.2295L6.54937 18.201C5.91465 18.7828 4.8911 18.3326 4.8911 17.4715V15.7528H1.14583C0.599299 15.7528 0.15625 15.3098 0.15625 14.7633V10.2367C0.15625 9.69021 0.599304 9.24716 1.14583 9.24716H4.8911V7.52846Z" fill="white"/>
</svg>
