<svg width="22" height="22" viewBox="0 0 22 22" fill="none" xmlns="http://www.w3.org/2000/svg">
    <path d="M11 0C8.82441 0 6.69767 0.645139 4.88873 1.85383C3.07979 3.06253 1.66989 4.78049 0.83733 6.79048C0.00476617 8.80047 -0.213071 11.0122 0.211367 13.146C0.635804 15.2798 1.68345 17.2398 3.22183 18.7782C4.76021 20.3166 6.72022 21.3642 8.85401 21.7886C10.9878 22.2131 13.1995 21.9952 15.2095 21.1627C17.2195 20.3301 18.9375 18.9202 20.1462 17.1113C21.3549 15.3023 22 13.1756 22 11C21.9966 8.08367 20.8365 5.28778 18.7744 3.22563C16.7122 1.16347 13.9163 0.00344047 11 0ZM11 20C9.13845 19.9567 7.32925 19.3753 5.791 18.326C6.44749 17.5947 7.2506 17.0098 8.14808 16.6095C9.04555 16.2091 10.0173 16.0021 11 16.0021C11.9827 16.0021 12.9545 16.2091 13.8519 16.6095C14.7494 17.0098 15.5525 17.5947 16.209 18.326C14.6836 19.4012 12.8663 19.9853 11 20ZM17.694 16.994C16.8517 16.052 15.8201 15.2985 14.6666 14.7825C13.513 14.2666 12.2636 13.9999 11 13.9999C9.73637 13.9999 8.48696 14.2666 7.33345 14.7825C6.17995 15.2985 5.14832 16.052 4.30601 16.994C3.14348 15.7004 2.38066 14.0977 2.10981 12.3798C1.83896 10.6618 2.07168 8.90213 2.77983 7.31364C3.48797 5.72514 4.64121 4.37585 6.10004 3.42896C7.55887 2.48208 9.26081 1.97816 11 1.97816C12.7392 1.97816 14.4411 2.48208 15.9 3.42896C17.3588 4.37585 18.512 5.72514 19.2202 7.31364C19.9283 8.90213 20.161 10.6618 19.8902 12.3798C19.6193 14.0977 18.8565 15.7004 17.694 16.994ZM11 5C10.2089 5 9.43552 5.2346 8.77772 5.67412C8.11993 6.11365 7.60724 6.73836 7.30449 7.46927C7.00174 8.20017 6.92252 9.00444 7.07686 9.78036C7.2312 10.5563 7.61217 11.269 8.17158 11.8284C8.73099 12.3878 9.44372 12.7688 10.2196 12.9231C10.9956 13.0775 11.7998 12.9983 12.5307 12.6955C13.2616 12.3928 13.8864 11.8801 14.3259 11.2223C14.7654 10.5645 15 9.79113 15 9C15 7.93913 14.5786 6.92172 13.8284 6.17157C13.0783 5.42143 12.0609 5 11 5ZM11 11C10.6044 11 10.2178 10.8827 9.88886 10.6629C9.55997 10.4432 9.30362 10.1308 9.15225 9.76537C9.00087 9.39991 8.96126 8.99778 9.03843 8.60982C9.1156 8.22186 9.30609 7.86549 9.58579 7.58579C9.8655 7.30608 10.2219 7.1156 10.6098 7.03843C10.9978 6.96126 11.3999 7.00087 11.7654 7.15224C12.1308 7.30362 12.4432 7.55996 12.6629 7.88886C12.8827 8.21776 13 8.60444 13 9C13 9.53043 12.7893 10.0391 12.4142 10.4142C12.0391 10.7893 11.5304 11 11 11Z" fill="#6B7280"/>
</svg>
