<svg width="101" height="28" viewBox="0 0 101 28" fill="none" xmlns="http://www.w3.org/2000/svg">
    <path d="M10.8636 27.3158C10.6644 27.3158 10.4652 27.2655 10.2821 27.1744C9.89805 26.996 9.62874 26.6737 9.52653 26.3021L0.102858 2.52435C-0.187971 1.82927 0.16101 1.01834 0.859008 0.786629C1.55701 0.49701 2.37134 0.844574 2.60399 1.53965L10.8345 22.3068L19.065 1.53965C19.3558 0.844574 20.112 0.49701 20.81 0.786629C21.5079 1.07625 21.8569 1.82927 21.5661 2.52435L12.1425 26.3019C12.137 26.3219 12.131 26.3417 12.1246 26.3614C12.1191 26.3781 12.1134 26.3946 12.1073 26.411C12.0937 26.4473 12.0785 26.483 12.0617 26.5181C12.0549 26.5322 12.0479 26.5462 12.0406 26.56C11.8329 27.0179 11.3482 27.3158 10.8636 27.3158Z" fill="#A81D42"/>
    <path d="M42.0994 27.1747C41.7147 26.9961 41.445 26.6733 41.3429 26.301L34.2463 8.37466C33.9554 7.67958 34.3045 6.86865 35.0025 6.63694C35.7004 6.34732 36.5148 6.69489 36.7474 7.38996L42.6513 22.3032L48.5551 7.38996C48.8459 6.69489 49.6021 6.34732 50.3001 6.63694C50.9981 6.92656 51.3471 7.67958 51.0562 8.37466L43.9708 26.2726C43.9148 26.5165 43.7913 26.7411 43.6135 26.9147C43.3685 27.1657 43.0244 27.3158 42.6803 27.3158C42.4814 27.3158 42.2824 27.2655 42.0994 27.1747Z" fill="#A81D42"/>
    <path d="M26.452 25.9256C26.452 26.6786 27.0337 27.2578 27.7899 27.2578C28.546 27.2578 29.1277 26.6786 29.1277 25.9256V7.67958C29.1277 6.92658 28.546 6.34732 27.7899 6.34732C27.0337 6.34732 26.452 6.92658 26.452 7.67958V25.9256Z" fill="#A81D42"/>
    <path d="M77.1727 27.2578H69.6693C66.4702 27.2578 63.8527 24.6513 63.8527 21.4655V12.1976C63.8527 9.01182 66.4702 6.40525 69.6693 6.40525H77.1727C77.9289 6.40525 78.5106 6.98449 78.5106 7.73749C78.5106 8.4905 77.9289 9.06975 77.1727 9.06975H69.6693C67.9825 9.06975 66.5866 10.4599 66.5866 12.1397V21.4075C66.5866 23.0873 67.9825 24.4775 69.6693 24.4775H77.1727C77.9289 24.4775 78.5106 25.0567 78.5106 25.8097C78.5106 26.6786 77.9289 27.2578 77.1727 27.2578Z" fill="#A81D42"/>
    <path fill-rule="evenodd" clip-rule="evenodd" d="M94.6225 27.2578H86.1303C84.0945 27.2578 82.4077 25.578 82.4077 23.5507V18.6272C82.4077 16.5998 84.0945 14.9201 86.1303 14.9201H97.7053V12.2556C97.7053 10.5758 96.3093 9.18559 94.6225 9.18559H86.2466C85.4905 9.18559 84.9088 8.60635 84.9088 7.85335C84.9088 7.10034 85.4905 6.52111 86.2466 6.52111H94.6225C97.8216 6.52111 100.439 9.12768 100.439 12.3135V21.5813C100.439 24.6513 97.8216 27.2578 94.6225 27.2578ZM86.1303 24.5934C85.5486 24.5934 85.0833 24.1299 85.0833 23.5507V18.6272C85.0833 18.0479 85.5486 17.5845 86.1303 17.5845H97.7053V21.5234C97.7053 23.2032 96.3093 24.5934 94.6225 24.5934H86.1303Z" fill="#A81D42"/>
    <path d="M26.2194 2.81396C26.2194 3.68282 26.9174 4.37792 27.7899 4.37792C28.6624 4.37792 29.3603 3.62489 29.3603 2.81396C29.3603 1.94511 28.6624 1.25003 27.7899 1.25003C26.9174 1.25003 26.2194 1.94511 26.2194 2.81396Z" fill="#A81D42"/>
    <path d="M57.5126 27.2578C56.7565 27.2578 56.1748 26.6786 56.1748 25.9256V7.67958C56.1748 6.92658 56.7565 6.34732 57.5126 6.34732C58.2688 6.34732 58.8505 6.92658 58.8505 7.67958V25.9256C58.8505 26.6786 58.2688 27.2578 57.5126 27.2578Z" fill="#A81D42"/>
    <path d="M55.9422 2.81396C55.9422 3.68282 56.6402 4.37792 57.5126 4.37792C58.3851 4.37792 59.0831 3.62489 59.0831 2.81396C59.0831 1.94511 58.3851 1.25003 57.5126 1.25003C56.6402 1.25003 55.9422 1.94511 55.9422 2.81396Z" fill="#A81D42"/>
</svg>
